# xmcd
#
# Track frame offsets:
#	150
#	11565
#	27756
#	47974
#	63627
#	76763
#	90084
#	105836
#	120873
#	143272
#	160657
#	178585
#	197335
#
# Disc length: 2815 seconds
#
# Revision: 0
# Processed by: cddbd v1.5.1PL0 Copyright (c) Steve Scherf et al.
# Submitted via: audiograbber 1.83.01
#
DISCID=840afd0d
DTITLE=DIAMOND RIO - One More Day
DYEAR=2001
DGENRE=Country
TTITLE0=That's Just That
TTITLE1=One More Day
TTITLE2=Sweet Summer
TTITLE3=I'm Already Gone
TTITLE4=I Could Do It With My Eyes Closed
TTITLE5='Till The Heartache's Gone
TTITLE6=Here I Go Fallin'
TTITLE7=I Think I Love You
TTITLE8=Hearts Against The Wind
TTITLE9=You Make Me Feel
TTITLE10=The Love Of A Woman
TTITLE11=I'm Trying
TTITLE12=Stuff
EXTD=
EXTT0=
EXTT1=
EXTT2=
EXTT3=
EXTT4=
EXTT5=
EXTT6=
EXTT7=
EXTT8=
EXTT9=
EXTT10=
EXTT11=
EXTT12=
PLAYORDER=
